<svg width="46" height="46" viewBox="0 0 46 46" fill="none" xmlns="http://www.w3.org/2000/svg">
<rect width="46" height="46" fill="#FD243E"/>
<path d="M33.191 20.7261V33.3668H13.5278V13.7036H26.1684V10.8945H13.5278C12.0109 10.8945 10.7188 12.1586 10.7188 13.7036V33.3668C10.7188 34.9117 12.0109 36.1758 13.5278 36.1758H33.191C34.764 36.1758 36 34.9117 36 33.3668V20.7261H33.191ZM30.3819 20.7261L31.7022 17.8328L34.5955 16.5126L31.7022 15.1923L30.3819 12.299L29.0617 15.1923L26.1684 16.5126L29.0617 17.8328L30.3819 20.7261ZM25.115 21.7795L23.3594 17.9171L21.6037 21.7795L17.7413 23.5352L21.6037 25.2908L23.3594 29.1532L25.115 25.2908L28.9774 23.5352L25.115 21.7795Z" fill="white"/>
</svg>
